# xmcd CD database file
#
# Track frame offsets:
#	150
#	15057
#	30802
#	41378
#	59227
#	74805
#	93589
#	115870
#	135649
#	153976
#	171117
#	183505
#	196772
#	209204
#	224248
#	243314
#	258498
#	276398
#
# Disc length: 3911 seconds
#
# Revision: 0
# Processed by: cddbd v1.5.1PL0 Copyright (c) Steve Scherf et al.
# Submitted via: CDex 1.51
#
DISCID=110f4512
DTITLE=Various Artist - Promo Only CanadaJanuary 2005 Country Radio
DYEAR=2005
DGENRE=Country
TTITLE0=Travis Tritt duet with John Mellencamp - What Say You
TTITLE1=Andy Griggs - If Heaven
TTITLE2=Joe Nichols - What's A Guy Gotta Do
TTITLE3=Keith Urban - You're My Better Half
TTITLE4=Montgomery Gentry - Gone
TTITLE5=Martina McBride - God's Will
TTITLE6=Tim McGraw - Back When
TTITLE7=Sara Evans  - Tonight
TTITLE8=Cross Canadian Ragweed - Alabama (New Version)
TTITLE9=Trent Willmon - Home Sweet Holiday Inn
TTITLE10=Malibu Storm - Long Way To Fall
TTITLE11=Alison Krauss and Union Station - Restless
TTITLE12=Blue County - Nothin' But Cowboy Boots
TTITLE13=Doc Walker - Forgive Me (For Giving A Damn)
TTITLE14=Jason McCoy - I Lie
TTITLE15=Hometown News - If I Could
TTITLE16=Jeffrey Steele - Once A Cowboy
TTITLE17=Jill King - Three Months, Two Weeks, One Day
EXTD=YEAR: 2005
EXTT0=
EXTT1=
EXTT2=
EXTT3=
EXTT4=
EXTT5=
EXTT6=
EXTT7=
EXTT8=
EXTT9=
EXTT10=
EXTT11=
EXTT12=
EXTT13=
EXTT14=
EXTT15=
EXTT16=
EXTT17=
PLAYORDER=
